<?xml version="1.0" encoding="utf-8"?>
<!-- Generator: Adobe Illustrator 26.0.1, SVG Export Plug-In . SVG Version: 6.00 Build 0)  -->
<svg version="1.1" id="Слой_1" xmlns="http://www.w3.org/2000/svg" xmlns:xlink="http://www.w3.org/1999/xlink" x="0px" y="0px"
	 viewBox="0 0 255.1 170.1" style="enable-background:new 0 0 255.1 170.1;" xml:space="preserve">
<style type="text/css">
	.st0{fill:none;}
	.st1{fill:#FFFFFF;stroke:#000000;stroke-linecap:round;stroke-miterlimit:10;}
	.st2{fill:none;stroke:#000000;stroke-linecap:round;stroke-miterlimit:10;}
	.st3{fill:none;stroke:#000000;stroke-width:2;stroke-linecap:round;stroke-miterlimit:10;}
	.st4{fill:none;stroke:#000000;stroke-width:0.5;stroke-linecap:round;stroke-miterlimit:10;}
</style>
<g>
	<g>
		<path class="st0" d="M128.1,118.3"/>
	</g>
	<g>
		<path d="M172.5,116.1c8.3-5.1,16.7-16.2,12.8-26.3c-1.1-3.1-4-6.4-5.9-8.5c-1-0.7-2.4-1.7-2.8-2.9c0,0.1,0.1,0.3,0.1,0.4
			c0,0,0,0,0,0l0,0c-1.3-1.4-2.2-3.2-2.8-5c-0.6-1.9-1.2-4.1,0.3-5.9c1-0.8,2.2-1.7,2.9-2.3c11.6-10.5,11.6-24.9,3.8-38.2
			c-6.7-11.9-20-18.6-33.4-14.9c-12.1,3.2-24.4,14.3-25.9,27.2c-0.3,5.3,1,10.9,4.4,15c5,5,11.5,8.4,18.4,9.9c0,0,0.6,0.1,0.6,0.1
			l0,0c0.1,0,0.3,0.2,0.1,0.3c-0.3,0.2-0.2,0.1-0.2,0.1c0,0,0,0,0,0c-0.3-0.1-1.4-0.3-1.7-0.4c0,0,0,0,0,0c0,0,0,0.1,0-0.1
			c0,0-0.1,0-0.1,0c-2.3-0.6-4.7-1.5-6.8-2.4c-0.6-0.3-1.4-0.7-1.9-1c0,0-2.1-0.6-2.1-0.6c-2.8-0.6-6.2,0.2-9.2,1
			c0,0-9.3,2.4-9.3,2.4c-12.4,3.1-24.9,5.8-37.7,6.4c-6.4,0.3-12.9-0.1-19.1-1.8c-4.6-1.1-8.9-3.5-13.5-4.6
			c-5.7-1.4-5.4,6.1-4.5,9.8c3.9,15.4,13.8,28.9,26.8,38c0.1,0.1,0,0.2-0.1,0.2c-10.8-6.9-19.5-17-24.5-28.8
			c-1.9-4.4-3.7-9.1-3.7-13.9c-0.1-2.9,1.4-6.7,5-6.4c2.1,0.1,4,1,5.9,1.7c8.8,3.8,18.2,5.5,27.7,4.9c12.7-0.6,25.2-3.3,37.5-6.3
			c0,0,9.3-2.3,9.3-2.3c2.3-0.5,4.8-1.4,7.2-1c0.8,0.1,1.6,0.3,2.3,0.5c0.6,0.3,2.4,1,3.1,1.4c2.4,1.2,5.2,2.2,7.8,2.9c0,0,0,0,0,0
			s0,0,0,0l0,0c0-0.2,0,0,0-0.1c0,0,1.2,0.3,1.2,0.3c0,0,0.3,0.1,0.3,0.1l0.1,0c0,0,0,0,0,0c0,0,0.1-0.1-0.2,0.1
			c-0.1,0.1,0,0.3,0.1,0.3l0,0c-6-1.2-11.7-3.7-16.4-7.6c-0.6-0.5-2.3-2-2.8-2.5c-1.4-1.6-2.4-3.5-3.2-5.5
			c-6.6-16.7,9.4-33.8,24.8-38c9.8-2.8,21,0.1,28.3,7.3c7.1,7.1,11.9,17.1,12,27.3c-0.3,7.2-3.2,14.5-8.7,19.3
			c-1,1.2-2.6,2.3-3.8,3.2c-1.4,1.8-0.1,4.5,0.6,6.4c0.5,1,1.1,2,1.9,2.9c0,0,0,0,0,0s0,0,0,0c0.1,0.1,0.2,0.3,0.2,0.4
			c0,0-0.1-0.3-0.1-0.3c0.7,0.9,1.6,1.7,2.5,2.4c5.3,5.3,9.1,12.1,6.5,19.8c-2.3,6.9-7.5,12.7-13.9,16
			C172.5,116.4,172.4,116.2,172.5,116.1L172.5,116.1z"/>
	</g>
	<g>
		<path d="M111.8,80.2c-12-2.3-45.1-4.4-23.5,14.5c12.7,10.7,29.5,11.4,43.5,2.7c0.5-0.3,1.1,0.5,0.5,0.8
			c-14.6,8.9-31.4,8.2-44.6-2.8C71,80.9,85,76.8,100.2,77.8c4,0.2,7.9,0.7,11.8,1.4C112.6,79.3,112.4,80.3,111.8,80.2L111.8,80.2z"
			/>
	</g>
	<g>
		<path d="M187.7,41.9c2.3,1,4.7,1.5,7.2,1.6c1.4,0.1,2.5-0.2,4,0.2c1.9,0.7,1,3.1,0.2,4.3c-1.4,2.3-3.5,4.1-5.9,5.3
			c-2.4,1.2-5,1.7-7.6,2.2c-0.6,0.1-1.1-0.3-1.2-0.8c-0.1-0.7,0.5-1.3,1.1-1.2c4.9,0.6,10-1.9,12.5-6.2c0.4-0.7,0.8-1.5,0.7-2.2
			c-0.1-0.1-0.1-0.2-0.3-0.2c-1-0.2-2.5,0.1-3.6,0c-2.6,0-5.3-0.4-7.9-1.2c-0.5-0.2-0.8-0.7-0.6-1.3C186.6,42,187.2,41.7,187.7,41.9
			L187.7,41.9z"/>
	</g>
	<g>
		<path d="M170.2,45.4c-1.1-1.1-0.6-2.6,0.1-3.7c1.4-2.2,4.5-3.2,6.8-2.1c1,0.3,3.5,2.5,2.2,3.3c-0.3,0.1-0.6,0-0.7-0.1
			c-1.3-1.2-3-1.4-4.2-0.8c-0.6,0.3-1.1,0.8-1.5,1.3c-0.4,0.8-0.4,1.3-1.3,2C171.1,45.7,170.6,45.7,170.2,45.4L170.2,45.4z"/>
	</g>
	<path class="st1" d="M192.9,82.4"/>
	<path class="st2" d="M219.3,62.1"/>
	<path class="st3" d="M8.2-0.9"/>
	<path class="st3" d="M71.9,140.8"/>
	<g>
		<path d="M239.2,131.4c-7.2,10.9-36,13.7-48.6,15.1c-2.9,0.3-5.7,0.5-8.6,0.7c-1.1,0.2-15.1,0.3-12,3c1.1,1.1,8.2,2.5,6.9,4.2
			c-0.8,0.8-1.9,1-2.9,1.3c-5.6,1.3-11.4,1.7-17.1,2.1c-11.5,0.7-23,0.8-34.5,0.6c-17.2-0.6-34.6-0.8-51.5-4.6
			c-9.6-2.7-8.7-5.2-0.7-9.9c4.8-3.2,0.8-3.7-2.6-3.4c-2.9,0.1-5.8,0.2-8.6,0c-11.5-0.5-22.7-4.4-32.9-9.6c-5-3-9.2-7.3-12.2-12.2
			c-2.4-13.4,14.2-17.7,24.3-19.8c3.8-0.7,7.6-1,11.5-0.9c0,0,0.1,0,0.1,0s0.1,0.1,0.1,0.1c4.3,5.5,9.6,10.3,15.4,14.2
			c0,0-0.2,0-0.2,0c1.2-0.3,2.4-0.4,3.5-0.3c3.6,0.3,6.7,2.4,9.5,4.3c5.9,4.3,12.7,5.9,19.6,3c2.1-0.9,4.2-2.1,6.5-2.6
			c4.6-1.2,9.4-0.7,13.9-0.2c2.4,0.3,4.7,0.8,7,1.7c4.4,1.9,9.6,1.4,13.7-0.9c2.1-1.1,4-2.5,6.2-3.6c4.2-2.2,9.3-3,14-1.9
			c2.4,0.5,4.5,1.8,6.6,2.8c1.9,1,5.1,1.5,6.6,1.7c3.8-2.5,7.3-5.4,10-9c2.7-3.6,4.4-8,4.2-12.5c0,0,0-0.3,0-0.3s0.3,0,0.3,0
			c6,1.1,11.9,2.5,17.8,4.1c11.4,3.3,26.4,7.9,34.1,17.4C241.7,120.3,241.9,126.6,239.2,131.4L239.2,131.4z M238.6,131
			c6.6-13.6-6.6-21.1-17.3-25.8c-11.1-4.7-22.8-8-34.6-10.3c0,0,0.1,0,0,0c0,0,0.2-0.3,0.2-0.3l0,0c0.4,9.5-6.9,17-14.4,21.8
			c-2.4,0-4.9-0.7-7.1-1.8c-2.2-1-4.2-2.3-6.5-2.8c-4.6-1.1-9.6-0.4-13.8,1.8c-4.2,2.1-8.1,5.4-13,5.5c-2.4,0.1-4.8-0.2-7-1.1
			c-2.2-0.9-4.6-1.3-6.9-1.6c-4.6-0.5-9.3-0.9-13.9,0.2c-2.3,0.5-4.3,1.7-6.4,2.7c-4.3,1.8-9.3,2.1-13.8,0.4
			c-5.5-1.9-9.6-7-15.5-7.5c-1.2-0.1-2.4,0-3.5,0.3c0,0-0.1-0.1-0.1-0.1c-5.9-3.9-11.2-8.7-15.6-14.3c-6.5,0.1-15.3,1.7-22.1,4.4
			c-7.2,2.5-14.4,7.3-13,15.7c3,4.9,7.1,9.1,11.9,12.1c4.9,2.9,10.4,4.8,15.8,6.7c5.5,1.8,11.1,2.9,16.9,3.2c2.9,0.1,5.8,0.1,8.6,0
			c1.1,0.1,4.8-0.5,4.8,1.2c0,0.4-0.3,0.7-0.5,0.9c-1.6,1.5-3.6,2.4-5.3,3.7c-20.1,13.7,84.8,12.6,90.3,11.5
			c2.2-0.2,22.3-1.2,19.9-4.2c-2-1.5-4.7-1.7-6.8-3.2c-0.3-0.2-0.6-0.5-0.5-0.9c0.1-0.4,0.5-0.6,0.8-0.7c1-0.4,2.1-0.6,3.1-0.8
			c5.7-0.7,11.5-0.7,17.2-1.4C203,145,231.8,141.6,238.6,131L238.6,131z"/>
	</g>
	<path class="st3" d="M157.8,97.2"/>
	<path class="st3" d="M113.2,109.1"/>
	<path class="st3" d="M105.7,109.6"/>
	<path class="st3" d="M182.4,107.1"/>
	<path class="st2" d="M117,112.7"/>
	<path class="st4" d="M65.3,112.3c-0.4,0.1-1.1,0.3-1.8,0.8c-0.8,0.5-1,0.8-1.5,1c-0.5,0.2-1.2,0.3-2.3-0.2"/>
	<path class="st2" d="M175.3,116.7"/>
	<path class="st4" d="M172.5,116.2c0.6,0.2,1.5,0.5,2.6,0.5c0.9,0.1,1.7,0,2.3-0.1"/>
</g>
</svg>
