<?xml version="1.0" encoding="utf-8"?>
<!-- Generator: Adobe Illustrator 26.0.1, SVG Export Plug-In . SVG Version: 6.00 Build 0)  -->
<svg version="1.1" id="Слой_1" xmlns="http://www.w3.org/2000/svg" xmlns:xlink="http://www.w3.org/1999/xlink" x="0px" y="0px"
	 viewBox="0 0 173.4 116.1" style="enable-background:new 0 0 173.4 116.1;" xml:space="preserve">
<style type="text/css">
	.st0{fill:none;}
	.st1{fill:none;stroke:#000000;stroke-width:2;stroke-miterlimit:10;}
	.st2{fill:#FFFFFF;stroke:#000000;stroke-miterlimit:10;}
	.st3{fill:none;stroke:#000000;stroke-miterlimit:10;}
	.st4{fill:none;stroke:#000000;stroke-width:0.5;stroke-linecap:round;stroke-miterlimit:10;}
</style>
<g>
	<g>
		<path class="st0" d="M88.5,83.3"/>
	</g>
	<g>
		<path d="M120.3,81.7c5.9-3.8,11.8-11.5,9.1-18.8c-0.8-2.2-3-4.6-4.2-6c-0.8-0.6-1.7-1.2-2.1-2.2c0,0.1,0.1,0.3,0.1,0.3s0,0,0-0.1
			c-1.5-1.8-3.6-5.7-1.8-7.9c0.8-0.7,1.4-1,2.1-1.7l-0.1,0.1c0.4-0.5,0.9-0.9,1.4-1.3l-0.1,0.1c3.2-3.3,5.1-7.8,5.3-12.5
			c0.1-6.9-3.2-13.8-8-18.8c-4.9-4.9-12.4-7.1-19.1-5.4C92.4,10,81.2,21.3,84.8,32.7c0.7,2.1,1.7,4.3,3.5,5.6
			c3.4,3.1,7.8,5.1,12.3,6l-0.3,1.5c-2.2-0.4-4.2-1.4-6.2-2.3c-1.9-0.5-4.6-1.3-6.7-1.7c-7-0.2-13.6,2.8-20.4,4.4
			c-9.1,2.5-18.8,4.4-28.2,2.3c-3.5-0.7-6.8-2.2-10.1-3.3C27.8,45,26.8,44.6,26,45c-2.9,2-0.1,9,1,11.8c3.5,8.7,9.6,15.7,16.7,21.8
			l-0.1,0.2C32.9,73.3,25.5,62.3,23,50.7c-0.5-2.5-0.5-6.2,2.2-7.5c2.6-1,5.1,0.7,7.5,1.5c6.4,2.7,13.3,3.7,20.3,2.9
			c4.6-0.4,9.2-1.4,13.7-2.6c6.9-1.5,13.7-4.5,20.8-4.1c4.5,1,8.7,2.6,13.1,3.5l-0.3,1.5c-5.8-1.3-12-4.2-15.4-9.3
			c-3.2-5.4-2.8-12.4,0.6-17.6c5.1-8.2,14.6-14.1,24.4-13c12.4,1.3,21.1,13.9,21.2,25.8c-0.2,5.5-2.7,10.8-6.9,14.4
			c-0.6,0.6-1.5,1.2-2.1,1.7c-1,1.2,0,3.2,0.5,4.5c0.3,0.7,0.8,1.4,1.3,2c0.1,0.1,0.2,0.3,0.2,0.4l-0.1-0.3c0.5,0.6,1.1,1.2,1.8,1.7
			c3.8,3.7,6.7,9,4.7,14.3c-1.7,5-5.4,9.2-10.1,11.5C120.4,81.9,120.3,81.7,120.3,81.7L120.3,81.7z"/>
	</g>
	<g>
		<path d="M76.8,56.1C68.4,54.4,44.7,53,60,66.3c9.1,7.6,21.1,8.1,31,2c0.2-0.1,0.5-0.1,0.7,0.2c0.1,0.2,0.1,0.5-0.2,0.7
			c-10.3,6.4-22.8,5.8-32.2-2c-12-10.5-1.9-13.7,9.1-12.9c2.8,0.2,5.7,0.5,8.5,1C77.5,55.3,77.4,56.2,76.8,56.1L76.8,56.1z"/>
	</g>
	<path class="st1" d="M131,29.2c0.8,0.3,2.1,0.7,3.7,0.9c2.8,0.3,4.3-0.3,4.8,0.5c0.6,0.9-0.8,2.9-1.9,3.9c-2.5,2.6-6,3-7.9,3.1"/>
	<g>
		<path d="M118.5,31c-1.1-0.8-0.7-2-0.1-2.9c1.5-2.7,6.1-2.6,7.2,0.4c0.3,0.6-0.6,1.2-1.1,0.8c-1.6-1.1-3.3-0.6-3.8,1
			c-0.1,0.2-0.6,0.5-1.1,0.8C119.2,31.3,118.8,31.3,118.5,31L118.5,31z"/>
	</g>
	<path class="st2" d="M135,57.6"/>
	<path class="st3" d="M153.9,43"/>
	<path class="st1" d="M2.5-2.2"/>
	<path class="st1" d="M48.2,99.5"/>
	<g>
		<path d="M168.3,92.7c-5.4,7.9-25.7,9.7-34.9,10.8c-1.1,0.4-17.7,0.3-14.7,2.6c1.5,1,3.4,1.2,4.9,2.3c0.1,0.1,0.2,0.2,0.2,0.3
			c-0.3,2.1-12.3,2.6-14.5,2.8c-3.8,0.8-79.2,1.6-64.8-8.3c10.2-6.1-0.9-3.6-5.4-4.1c-4.1-0.2-8.2-0.9-12.2-2.2
			c-3.9-1.3-7.8-2.7-11.5-4.7C11.8,90,8.8,87,6.6,83.5c-2.4-12,17.3-15.2,25.9-15c3.1,4,6.9,7.4,11.1,10.2h-0.2
			c0.8-0.2,1.7-0.3,2.6-0.2c4.3,0.4,7.3,4.1,11.2,5.5c3.1,1.2,6.6,1,9.6-0.2c1.5-0.7,3-1.5,4.6-1.9c3.3-0.8,6.8-0.5,10-0.1
			c3.5,0.2,6.5,2.4,10,2c3.5-0.1,6.3-2.5,9.2-4c3-1.6,6.7-2.1,10-1.4c1.7,0.4,3.2,1.3,4.7,2c1.6,0.8,3.6,1,4.7,1.2
			c5.2-3.4,10.4-8.6,10.1-15.3V66h0.3l0,0l0,0C142.1,68.4,177.1,75.5,168.3,92.7L168.3,92.7z M167.7,92.4
			c4.7-9.5-4.8-15.1-12.4-18.3c-8-3.3-16.3-5.7-24.8-7.4c0,0,0.1,0,0,0l0.2-0.3l0,0c0.3,6.8-5,12.3-10.4,15.7
			c-3.6,0.2-6.5-2.4-9.8-3.3c-3.3-0.8-6.8-0.3-9.8,1.2s-5.8,3.9-9.3,4c-3.5,0.4-6.5-1.8-10-2c-3.3-0.3-6.7-0.7-9.9,0.2
			c-1.6,0.4-3.1,1.2-4.6,1.9c-3.1,1.3-6.7,1.5-9.9,0.3c-4.6-1.6-8.3-6.5-13.5-5.2h-0.1l-0.1-0.1c-4.2-2.8-8-6.3-11.2-10.3l0.2,0.1
			c-2.7,0-5.5,0.3-8.1,0.9c-2.7,0.5-5.3,1.3-7.8,2.3c-5.1,1.8-10.3,5.3-9.3,11.1c2.1,3.5,5,6.5,8.5,8.7c7.2,3.9,15.2,6.7,23.4,7.2
			c2.1,0.1,4.1,0,6.2,0c0.8,0.1,3.4-0.4,3.4,0.9c-0.2,0.8-1,1.2-1.6,1.6c-1.5,1.2-6.2,3.1-3.7,5.3c1.2,0.9,2.8,1.4,4.2,1.8
			c4,1,8.1,1.5,12.2,1.9c18.5,1.6,37.1,2,55.6,0.4c1.2-0.2,9.4-0.8,8.1-2.5c-1.4-1.1-3.4-1.3-4.9-2.3c-0.2-0.1-0.4-0.4-0.4-0.7
			c0.5-0.9,1.9-0.9,2.8-1.1c4.1-0.5,8.2-0.5,12.3-1C142.4,102.4,162.5,100.1,167.7,92.4L167.7,92.4z"/>
	</g>
	<path class="st1" d="M109.8,68.2"/>
	<path class="st1" d="M77.8,76.7"/>
	<path class="st1" d="M72.4,77.1"/>
	<path class="st1" d="M127.4,75.3"/>
	<path class="st3" d="M80.5,79.3"/>
	<path class="st4" d="M43.5,79c-0.3,0.1-0.8,0.2-1.3,0.5s-0.7,0.6-1.1,0.7s-0.9,0.2-1.6-0.2"/>
	<path class="st3" d="M122.4,82.2"/>
	<path class="st4" d="M120.4,81.8c0.5,0.2,1.1,0.3,1.8,0.4c0.7,0,1.2,0,1.7-0.1"/>
</g>
</svg>
